<svg class="icon-loading" xmlns="http://www.w3.org/2000/svg" viewBox="0 0 32 32" width="32" height="32"><path d="M-4 12a4 4 0 0 0 0 8 4 4 0 0 0 0-8"><animateTransform attributeName="transform" type="translate" values="-8 0; 2 0; 2 0;" dur="0.8s" repeatCount="indefinite" begin="0" keySplines="0.2 0.2 0.4 0.8;0.2 0.6 0.4 0.8" calcMode="spline"/></path><path d="M6 12a4 4 0 0 0 0 8 4 4 0 0 0 0-8"><animateTransform attributeName="transform" type="translate" values="2 0; 12 0; 12 0;" dur="0.8s" repeatCount="indefinite" begin="0" keySplines="0.2 0.2 0.4 0.8;0.2 0.6 0.4 0.8" calcMode="spline"/></path><path d="M16 12a4 4 0 0 0 0 8 4 4 0 0 0 0-8"><animateTransform attributeName="transform" type="translate" values="12 0; 22 0; 22 0;" dur="0.8s" repeatCount="indefinite" begin="0" keySplines="0.2 0.2 0.4 0.8;0.2 0.6 0.4 0.8" calcMode="spline"/></path><path d="M28 12a4 4 0 0 0 0 8 4 4 0 0 0 0-8"><animateTransform attributeName="transform" type="translate" values="22 0; 32 0; 32 0;" dur="0.8s" repeatCount="indefinite" begin="0" keySplines="0.2 0.2 0.4 0.8;0.2 0.6 0.4 0.8" calcMode="spline"/></path></svg>